<svg xmlns="http://www.w3.org/2000/svg" width="821" height="283" viewBox="0 0 821 283">
  <defs>
    <style>
      .cls-1 {
        fill: #5eabd7;
        fill-rule: evenodd;
      }
    </style>
  </defs>
  <path id="Color_Fill_1" data-name="Color Fill 1" class="cls-1" d="M0,0H821V283H0V0ZM52,126c2.466-42.6,70.98-88.247,114-54l-2,2L146,96v1c5.716,2.942,9.314,9.787,14,14l32-17,7,14,30-1v-1L216,80l27-16V63L212,22l-7,6L186,51C110.638,9.811,6.606,58.263,25,153H205c-9.558,31.2-42.686,77.858-90,64-14.423-4.224-43.217-16.5-66-8l10,11c19.489,8.942,32.25,19.658,59,25,59.842,11.95,134.248-60.689,115-119H52Zm216,34H256c-1.073,45,41.436,55.956,52,24,13.4-40.523-26.225-38.939-38-57-5.721-8.776-1.531-36.377,1-47,4.471-2.285,5.965-3.691,13-4l8,5c2.153,8.46,3.086,18.182,3,30l11-1c0.508-14.5-.577-29.121-7-37-10.9-13.369-36.391-5.433-41,8q-0.5,12.5-1,25c0.012,47.016,29.324,29.4,40,55,4.406,9.206-.2,23.878-6,27-4.05,3.777-11.947,3.738-16,0C266.189,183.5,267.379,173.667,268,160ZM470,67v9l18,1q0.5,61.494,1,123l10-1V76h19q-0.5-4.5-1-9H470Zm260,0V200h10V67H730Zm22,0v9l18,1q0.5,61.494,1,123l10-1q0.5-61.494,1-123h17V67H752ZM342,92c-7.285,3.341-14.583,5.033-18,12-5.342,10.893-3.328,80.25,2,88,5.139,7.476,21.1,12.9,30,5,10.305-4.982,16.47-73.3,9-91C361.517,97.748,353.426,92.6,342,92Zm269,75q-0.5,8.5-1,17l-5,6c-6.923.141-9.573-.652-12-5-6.813-7.57-3.565-72.336,1-80,3.475-1.246,6.837-2.807,11-1,3.416,1.616,3.346,1.628,5,5q1,9,2,18h10c0.784-16.147-.416-27.219-11-32-9.983-6.205-21.188-.234-28,5-6.143,26.969-8.074,78.036,5,98,20.522,6.131,42.152-4.986,34-31H611ZM381,93V200h11V172h22V162H392V103h26V93H381Zm44,0v10h14q0.5,48.5,1,97l10-1V103h14q-0.5-5-1-10H425Zm104,0V200h38V189H540V172h22V162H540V103h27V93H529Zm109,0V200l11-1V173h21q0.5,13.5,1,27l10-1V93l-11,1v69l-22-1q0.5-34,1-68l-1-1H638Zm51,69v11h35V162H689ZM28,171v4H58l-1-4H28Zm3,9,3,7H66v-1l-3-3-2-3H31Zm7,12-1,1,6,8,36-1v-1l-3-3-6-4H38Zm350,20c-0.329,8.092-1.572,22.267,2,27,3.418-1.095,11.9-.517,18-2,1.931-4.546,2.8-6.743,2-12-4.5-6.039-10.1-6.308-18-4C392.331,214.638,393.036,213.613,388,212Zm68,0q0.5,13.5,1,27l3-2V213Zm29,0v9h-1c-8.535-3.2-12.573-.659-18,4q0.5,4,1,8l2,4c6.9,1.887,13.581,1.165,19,2V212h-3ZM263,239h19v-4H266c0.437-8.958,1.937-19.973-3-22v26Zm77-26q-1,4.5-2,9l4-1C342.033,216.449,342.132,215.105,340,213Zm104,0c-0.33,7.9-1.468,21.416,2,26l2-1V214ZM317,223c6.449,0.522,12.653,1.072,15-3H317q-0.5-2.5-1-5l-2,1q0.5,9,1,18c2.6,5.5,7.327,5.611,14,4,3.056-2.708,3.69-4.269,4-10h-3l-3,7-7-1-3-2v-9Zm-22-4c-4.521,2.454-6.644,2.224-9,7q-0.5,2.5-1,5l4,6c3.848,1.221,8.511,2.973,13,1,5.7-2.727,4.812-5.506,7-10l-4-7Zm58,0-6,4,1,3c2.77,3.521,8.831,4.051,14,5l-1,4c-8.086.017-11.675-2.526-15-3v1l3,5h12l5-4v-3l-5-4,5-3C362.3,220.6,360.328,219.208,353,219Zm193,0-7,5c-2.309,3.308-2.854,4.373-1,7,1.414,11.681,24.552,10.054,21-6C555.858,220.912,553.057,219.357,546,219Zm46,1c-0.436,7.691-.676,15.388,3,19l2-1q0.5-7.5,1-15c4.815-.515,5.918-0.509,10,1v5h5l-3-8C603.832,219.509,600.232,219.775,592,220Zm49-1-8,5c-1.743,8.545,1.119,10.66,6,15l9-1,6-5-2-2c-4.328,3.473-7.722,4.632-15,3-0.829-6.036-.564-6.891,2-11l3-1,12,5-4-7Zm27,0-9,7c0.064,6.073.991,7.557,3,11,6.9,1.887,13.581,1.165,19,2,0.622-7.761,2.091-18.73-4-18Zm21,1c-0.617,7.9-1.642,16.615,4,19-0.244-6.435.158-12.228,2-16l6-1c2.631,2.978,3.533,5.553,8,7v-4C704.183,218.6,699.27,219.3,689,220Zm33-1c-4.837,2.854-10.715,5.835-7,14,1.616,3.416,1.628,3.346,5,5h10l6-5q-0.5-3.5-1-7l-3-5Zm27,0-9,7c0.478,11.021,7.283,14.513,18,12,3.894-3.3,3.689-4.971,5-9l-4-8Zm35,10h5c-0.862-5.529-1.663-6.954-6-9H769v17l2,2,2-1V224l2-1h5l4,1v5Zm-368-9q0.5,6.5,1,13l6,6,13-1V220h-3c0.246,7.324-.66,10.967-3,15l-10-2q0.5-6.5,1-13h-5Zm96,0c-0.387,9.237.675,13.246,4,18h11q-0.5,2.5-1,5h-2c-4.946,1.315-6.4-1.7-12-3v1c1.632,2.557,1.232,2.424,4,4,6.634,4.064,11.183.276,15-4V220h-3c0.246,7.324-.66,10.967-3,15l-10-2q0.5-6.5,1-13h-4Zm54,0c-0.341,8.1.295,13.619,3,18l2,1c8.01-.044,8.9-0.747,14,0V220h-3c0.28,7.4-.546,11.058-3,15h-1l-9-2C569.491,226.809,569.928,222.23,566,220Z"/>
</svg>
